<svg xmlns="http://www.w3.org/2000/svg" viewBox="0 0 24 24" fill="none" stroke="#000000" stroke-width="2" stroke-linecap="round" stroke-linejoin="round">
  <path d="M12 2C6.48 2 2 6.58 2 12.21c0 4.5 2.87 8.32 6.84 9.67.5.1.68-.22.68-.48 0-.24-.01-.87-.01-1.7-2.78.62-3.37-1.35-3.37-1.35-.45-1.16-1.11-1.47-1.11-1.47-.91-.63.07-.62.07-.62 1 .07 1.53 1.05 1.53 1.05.89 1.55 2.34 1.1 2.91.84.09-.66.35-1.1.63-1.36-2.22-.26-4.56-1.13-4.56-5.02 0-1.11.39-2.02 1.03-2.73-.1-.26-.45-1.3.1-2.71 0 0 .84-.27 2.75 1.04A9.28 9.28 0 0 1 12 6.84c.85 0 1.71.12 2.51.34 1.91-1.31 2.75-1.04 2.75-1.04.55 1.41.2 2.45.1 2.71.64.71 1.03 1.62 1.03 2.73 0 3.9-2.34 4.76-4.57 5.01.36.32.68.94.68 1.9 0 1.37-.01 2.47-.01 2.81 0 .26.18.58.69.48A10.02 10.02 0 0 0 22 12.21C22 6.58 17.52 2 12 2z"/>
</svg>
